<svg width="16" height="20" viewBox="0 0 16 20" fill="none" xmlns="http://www.w3.org/2000/svg">
<path d="M11.187 3.96777C11.3032 3.96777 11.4831 3.98161 11.7266 4.00928C11.9756 4.03141 12.2578 4.09229 12.5732 4.19189C12.8887 4.2915 13.2096 4.45199 13.5361 4.67334C13.8626 4.89469 14.1642 5.20459 14.4409 5.60303C14.4132 5.61963 14.3081 5.69434 14.1255 5.82715C13.9484 5.95996 13.7464 6.15365 13.5195 6.4082C13.2926 6.65723 13.0934 6.97542 12.9219 7.36279C12.7559 7.74463 12.6729 8.20117 12.6729 8.73242C12.6729 9.34115 12.778 9.85579 12.9883 10.2764C13.2041 10.6969 13.4531 11.0373 13.7354 11.2974C14.0231 11.5575 14.2777 11.7484 14.499 11.8701C14.7259 11.9863 14.8477 12.0472 14.8643 12.0527C14.8587 12.0749 14.8172 12.1994 14.7397 12.4263C14.6623 12.6476 14.5405 12.9354 14.3745 13.2896C14.214 13.6382 14.0037 14.0034 13.7437 14.3853C13.5057 14.7228 13.2594 15.0465 13.0049 15.3564C12.7559 15.6663 12.4819 15.9181 12.1831 16.1118C11.8898 16.311 11.5578 16.4106 11.187 16.4106C10.9048 16.4106 10.6641 16.3774 10.4648 16.311C10.2656 16.2446 10.0747 16.1672 9.89209 16.0786C9.71501 15.9956 9.51855 15.9209 9.30273 15.8545C9.08691 15.7881 8.81852 15.7549 8.49756 15.7549C8.07699 15.7549 7.72559 15.8075 7.44336 15.9126C7.16667 16.0233 6.90381 16.134 6.65479 16.2446C6.40576 16.3553 6.11247 16.4106 5.7749 16.4106C5.26025 16.4106 4.80648 16.2087 4.41357 15.8047C4.0262 15.4007 3.62777 14.9137 3.21826 14.3438C2.90283 13.89 2.61507 13.367 2.35498 12.7749C2.09489 12.1828 1.88737 11.5547 1.73242 10.8906C1.57747 10.2266 1.5 9.5625 1.5 8.89844C1.5 7.83594 1.70199 6.93945 2.10596 6.20898C2.50993 5.47298 3.02734 4.91683 3.6582 4.54053C4.28906 4.15869 4.94482 3.96777 5.62549 3.96777C5.98519 3.96777 6.32275 4.03141 6.63818 4.15869C6.95915 4.28597 7.25798 4.41325 7.53467 4.54053C7.81136 4.66227 8.06315 4.72314 8.29004 4.72314C8.50586 4.72314 8.76042 4.66227 9.05371 4.54053C9.34701 4.41325 9.67074 4.28597 10.0249 4.15869C10.3846 4.03141 10.772 3.96777 11.187 3.96777ZM10.606 2.62305C10.3293 2.96061 9.98063 3.24007 9.56006 3.46143C9.14502 3.68278 8.75212 3.79346 8.38135 3.79346C8.30387 3.79346 8.22917 3.78516 8.15723 3.76855C8.15169 3.74642 8.14339 3.70768 8.13232 3.65234C8.12679 3.59701 8.12402 3.53613 8.12402 3.46973C8.12402 3.04915 8.21533 2.63965 8.39795 2.24121C8.58057 1.84277 8.79085 1.51074 9.02881 1.24512C9.3221 0.896484 9.69287 0.605957 10.1411 0.373535C10.5949 0.141113 11.0293 0.0166016 11.4443 0C11.4609 0.0940755 11.4692 0.201986 11.4692 0.32373C11.4692 0.749837 11.389 1.16488 11.2285 1.56885C11.068 1.96729 10.8605 2.31868 10.606 2.62305Z" fill="black"/>
</svg>
