<svg width="15" height="20" viewBox="0 0 15 20" fill="none" xmlns="http://www.w3.org/2000/svg">
    <g opacity="0.5" clip-path="url(#clip0_6690_306679)">
        <path d="M2.71484 6.59117V13.4052C2.71484 14.6896 3.46911 15.4531 4.75288 15.4531H10.2064C11.4872 15.4531 12.2473 14.6868 12.2473 13.4052V6.59117C12.2473 5.31563 11.4872 4.55207 10.2064 4.55207H4.75288C3.46911 4.55207 2.71484 5.31278 2.71484 6.59117Z"
              fill="white" fill-opacity="0.2125"/>
        <path d="M0.923828 6.24217C0.923828 4.84746 1.47168 3.82713 2.53444 3.21408C3.05934 2.92119 3.37329 2.57117 3.57132 1.99582L3.97277 0.896097C4.17913 0.305035 4.65023 0.00286293 5.31146 0.00286293H9.64545C10.3221 0.00286293 10.7715 0.299038 10.9779 0.896097L11.3856 1.99582C11.5836 2.57117 11.9005 2.92119 12.4225 3.21408C13.4823 3.82713 14.0331 4.8446 14.0331 6.24217V13.7606C14.0331 15.1582 13.4823 16.1696 12.4225 16.7887C11.9005 17.0816 11.5836 17.4345 11.3856 18.0009L10.9779 19.1067C10.7869 19.6917 10.3159 20 9.64545 20H5.31146C4.65023 20 4.17913 19.6978 3.97277 19.1067L3.57132 18.0009C3.3708 17.4292 3.05102 17.0613 2.53444 16.7887C1.47795 16.1907 0.923828 15.1704 0.923828 13.7606V6.24217ZM2.71513 6.59138V13.4054C2.71513 14.6898 3.46939 15.4533 4.75317 15.4533H10.2067C11.4875 15.4533 12.2476 14.687 12.2476 13.4054V6.59138C12.2476 5.31585 11.4875 4.55228 10.2067 4.55228H4.75317C3.46939 4.55228 2.71513 5.31299 2.71513 6.59138ZM13.6563 10.5753H14.0769C14.6268 10.5753 14.9999 10.9473 14.9999 11.527V12.7603C14.9999 13.3343 14.6268 13.7091 14.0769 13.7091H13.6563V10.5753Z"
              fill="white" fill-opacity="0.85"/>
    </g>
    <defs>
        <clipPath id="clip0_6690_306679">
            <rect width="15" height="20" fill="white" transform="matrix(1 0 0 -1 0 20)"/>
        </clipPath>
    </defs>
</svg>
